<?xml version="1.0" encoding="utf-8"?>
<!-- Generator: Adobe Illustrator 16.0.4, SVG Export Plug-In . SVG Version: 6.00 Build 0)  -->
<!DOCTYPE svg PUBLIC "-//W3C//DTD SVG 1.1//EN" "http://www.w3.org/Graphics/SVG/1.1/DTD/svg11.dtd">
<svg version="1.1" id="Layer_1" xmlns="http://www.w3.org/2000/svg" xmlns:xlink="http://www.w3.org/1999/xlink" x="0px" y="0px"
	 width="512px" height="512px" viewBox="0 0 512 512" enable-background="new 0 0 512 512" xml:space="preserve">
<g id="Out_line">
	<path fill="#FFFFFF" d="M232,48C130.542,48,48,130.542,48,232s82.542,184,184,184c101.457,0,184-82.542,184-184S333.457,48,232,48z
		 M232,400c-92.636,0-168-75.364-168-168S139.365,64,232,64c92.635,0,168,75.364,168,168S324.635,400,232,400z"/>
	<path fill="#FFFFFF" d="M348.579,285.7l-12.438-7.462c-29.121-17.342-53.532-41.576-71.084-70.571
		c-11.48-18.876-36.09-24.871-54.966-13.391c-18.876,11.481-24.871,36.09-13.39,54.966c24.389,39.999,58.112,73.487,98.28,97.596
		l12.438,7.462c3.788,2.273,8.702,1.045,10.976-2.744c2.273-3.788,1.044-8.702-2.744-10.976l-12.437-7.462
		c-38.036-22.65-69.918-54.308-92.838-92.182c-6.913-11.312-3.348-26.085,7.964-32.998s26.086-3.348,32.999,7.964
		c0.015,0.024,0.029,0.048,0.044,0.072c18.993,31.14,45.252,57.212,76.526,75.983l12.438,7.462
		c3.789,2.273,8.702,1.045,10.976-2.744C353.597,292.887,352.368,287.973,348.579,285.7L348.579,285.7L348.579,285.7z"/>
	<path fill="#FFFFFF" d="M332.115,313.14l-12.438-7.463c-34.935-20.992-64-50.47-84.5-85.696c-2.22-3.82-7.116-5.117-10.937-2.897
		s-5.117,7.115-2.897,10.936c21.858,37.562,52.852,68.994,90.103,91.378l12.438,7.463c3.788,2.272,8.702,1.044,10.976-2.744
		C337.133,320.327,335.904,315.413,332.115,313.14L332.115,313.14z"/>
	<path fill="#FFFFFF" d="M103.4,248c4.418,0,8-3.581,8-7.999c0-0.242-0.011-0.483-0.033-0.725
		c-6.004-65.999,42.632-124.369,108.631-130.373c3.604-0.328,7.222-0.493,10.842-0.494c41.896,0.138,80.726,21.984,102.591,57.722
		c5.834,9.619,12.912,18.424,21.053,26.188c3.2,3.047,8.265,2.922,11.311-0.277c3.047-3.2,2.922-8.265-0.277-11.311l0,0
		c-7.12-6.791-13.311-14.493-18.411-22.907c-24.781-40.5-68.786-65.259-116.266-65.414C155.725,92.429,94.85,153.338,94.87,228.451
		c0,1.207,0.017,2.414,0.049,3.621c-4.378,0.598-7.443,4.631-6.846,9.009C88.614,245.045,91.999,248,96,248H103.4z"/>
	<path fill="#FFFFFF" d="M232.673,361.764c-9.319-7.493-18.241-15.469-26.727-23.895c-2.703-2.685-6.925-3.091-10.09-0.971
		c-9.698,6.492-20.188,11.716-31.214,15.544c-4.174,1.45-6.382,6.009-4.932,10.183s6.009,6.382,10.183,4.932
		c10.255-3.562,20.102-8.206,29.373-13.854c7.488,7.174,15.333,14.062,23.384,20.532c3.444,2.768,8.479,2.219,11.247-1.225
		C236.665,369.567,236.117,364.532,232.673,361.764z"/>
	<path fill="#FFFFFF" d="M372.115,225.185l-3.047-1.827c-20.199-12.018-37.134-28.817-49.312-48.92
		c-18.951-30.975-52.605-49.909-88.917-50.029c-57.443,0.022-103.992,46.606-103.971,104.05c0.005,11.408,1.886,22.737,5.568,33.534
		c-4.014,1.324-8.211,2.001-12.437,2.007h-16c-4.419,0-8,3.582-8,8c0,4.419,3.581,8,8,8h16c9.221-0.018,18.296-2.304,26.424-6.657
		c3.66-1.958,5.214-6.391,3.578-10.205c-19.181-44.655,1.471-96.404,46.126-115.585c40.3-17.311,87.194-2.301,109.953,35.192
		c13.522,22.326,32.326,40.984,54.757,54.333l3.046,1.828c3.789,2.272,8.703,1.044,10.976-2.745
		C377.133,232.372,375.905,227.458,372.115,225.185L372.115,225.185z"/>
	<path fill="#FFFFFF" d="M284.184,359c-28.385-17.41-53.733-39.342-75.044-64.929c-2.829-3.394-7.874-3.851-11.268-1.021
		c-0.283,0.236-0.55,0.492-0.799,0.766c-16.294,17.896-38.284,29.594-62.229,33.104c-4.372,0.636-7.401,4.695-6.766,9.068
		c0.636,4.372,4.696,7.4,9.068,6.765c0.003,0,0.006-0.001,0.01-0.001c24.555-3.604,47.404-14.683,65.441-31.729
		c21.194,24.077,45.874,44.846,73.219,61.615c3.771,2.303,8.694,1.113,10.997-2.657C289.11,366.22,287.934,361.311,284.184,359z"/>
	<path fill="#FFFFFF" d="M364.115,257.704l-11.51-6.906c-24.66-14.68-45.334-35.197-60.199-59.746
		c-13.122-21.447-36.425-34.559-61.567-34.643c-39.777,0.027-72.001,32.295-71.974,72.071c0.009,13.183,3.636,26.11,10.485,37.374
		c1.308,2.152,2.655,4.311,4.03,6.456C159.694,287.339,140.327,295.933,120,296c-4.419,0-8,3.582-8,8c0,4.419,3.581,8,8,8
		c27.245-0.085,52.936-12.706,69.654-34.22c2.1-2.72,2.228-6.477,0.319-9.333c-2.394-3.582-4.73-7.249-6.947-10.898
		c-16.086-26.418-7.709-60.874,18.709-76.96c26.418-16.085,60.874-7.709,76.959,18.709c0.013,0.021,0.025,0.041,0.038,0.062
		c16.208,26.772,38.751,49.148,65.642,65.158l11.51,6.906c3.791,2.269,8.703,1.035,10.973-2.756
		C369.122,264.883,367.897,259.977,364.115,257.704z"/>
	<path fill="#FFFFFF" d="M453.656,362.344c-3.124-3.124-8.189-3.124-11.313,0L432,372.686l-20.473-20.472
		c66.375-99.144,39.812-233.322-59.331-299.698C266.497-4.858,152.195,6.344,79.265,79.265
		C-5.066,163.671-5.007,300.46,79.4,384.791c72.916,72.853,187.142,84.047,272.814,26.737L372.686,432l-10.343,10.344
		c-3.124,3.124-3.125,8.188-0.001,11.312l0.001,0.001l40,40l11.313-11.313L379.313,448l10.344-10.343l48-48L448,379.313
		l34.343,34.344l11.313-11.313L453.656,362.344z M32,232c0-110.28,89.72-200,200-200c110.279,0,200,89.72,200,200
		S342.28,432,232,432C121.72,432,32,342.28,32,232z M384,420.687l-18.698-18.697c13.638-10.734,25.953-23.05,36.687-36.688
		L420.686,384L384,420.687z"/>
</g>
</svg>
