<?xml version="1.0" encoding="utf-8"?>
<!-- Generator: Adobe Illustrator 16.0.4, SVG Export Plug-In . SVG Version: 6.00 Build 0)  -->
<!DOCTYPE svg PUBLIC "-//W3C//DTD SVG 1.1//EN" "http://www.w3.org/Graphics/SVG/1.1/DTD/svg11.dtd">
<svg version="1.1" id="Layer_1" xmlns="http://www.w3.org/2000/svg" xmlns:xlink="http://www.w3.org/1999/xlink" x="0px" y="0px"
	 width="496px" height="496px" viewBox="0 0 496 496" enable-background="new 0 0 496 496" xml:space="preserve">
<path fill="#FFFFFF" d="M464,144c17.648,0,32-14.352,32-32V96c0-17.648-14.352-32-32-32h-64V48c8.824,0,16-7.176,16-16V16
	c0-8.824-7.176-16-16-16H16C7.176,0,0,7.176,0,16v16c0,8.824,7.176,16,16,16v164.551L0,197.441V496h316.121L95.887,288H320v136
	c0,13.23,10.77,24,24,24h128c13.23,0,24-10.77,24-24V216c0-13.23-10.77-24-24-24h-72v-48H464z M432,96H256V80h176V96z M240,121.054
	L214.426,104L240,86.945V121.054z M256,112h176v16H256V112z M480,96v16c0,8.824-7.176,16-16,16h-16V80h16
	C472.824,80,480,87.176,480,96z M16,16h384l0.008,16H16V16z M16,480v-16h16v-16H16v-16h16v-16H16v-16h16v-16H16v-16h16v-16H16v-16
	h16v-16H16v-16h16v-16H16v-53.441L275.879,480H16z M480,216v208c0,4.414-3.594,8-8,8H344c-4.406,0-8-3.586-8-8V216
	c0-4.414,3.594-8,8-8h128C476.406,208,480,211.586,480,216z M384,192H248v16h73.473c-0.898,2.512-1.473,5.184-1.473,8v8h-72v16h72
	v32H78.946L32,227.664V48h352v16H245.574l-60,40l60,40H384V192z"/>
<path fill="#FFFFFF" d="M168,96h-55L98.543,204.375L75.84,176H48v16h20.16l41.297,51.625L127,112h41V96z"/>
<path fill="#FFFFFF" d="M218.344,138.344L184,172.687l-34.344-34.344l-11.312,11.312L172.688,184l-34.344,34.344l11.312,11.312
	L184,195.312l34.344,34.344l11.312-11.312L195.313,184l34.344-34.344L218.344,138.344z"/>
<path fill="#FFFFFF" d="M248,160h120v16H248V160z"/>
<path fill="#FFFFFF" d="M48,308.801V448h147.383L48,308.801z M64,345.922L155.145,432H64V345.922z"/>
<path fill="#FFFFFF" d="M464,224H352v64h112V224z M448,272h-80v-32h80V272z"/>
<path fill="#FFFFFF" d="M416,320h48v16h-48V320z"/>
<path fill="#FFFFFF" d="M352,368h48v16h-48V368z"/>
<path fill="#FFFFFF" d="M352,400h48v16h-48V400z"/>
<path fill="#FFFFFF" d="M368,352h16v-16h16v-16h-16v-16h-16v16h-16v16h16V352z"/>
<path fill="#FFFFFF" d="M450.344,370.344L440,380.687l-10.344-10.344l-11.312,11.312L428.688,392l-10.344,10.344l11.312,11.312
	L440,403.312l10.344,10.344l11.312-11.312L451.313,392l10.344-10.344L450.344,370.344z"/>
</svg>
