<?xml version="1.0" encoding="utf-8"?>
<!-- Generator: Adobe Illustrator 16.0.4, SVG Export Plug-In . SVG Version: 6.00 Build 0)  -->
<!DOCTYPE svg PUBLIC "-//W3C//DTD SVG 1.1//EN" "http://www.w3.org/Graphics/SVG/1.1/DTD/svg11.dtd">
<svg version="1.1" id="Layer_5" xmlns="http://www.w3.org/2000/svg" xmlns:xlink="http://www.w3.org/1999/xlink" x="0px" y="0px"
	 width="512px" height="512px" viewBox="0 0 512 512" enable-background="new 0 0 512 512" xml:space="preserve">
<path fill="#FFFFFF" d="M328,246.632C328,229.736,314.256,216,297.376,216c-8.185,0-15.872,3.185-21.656,8.977l-70.976,70.976
	c-9.616,9.616-21.128,17.208-33.648,22.433C179.16,307.664,184,294.4,184,280c0-35.288-28.712-64-64-64s-64,28.712-64,64
	c0,19.984,9.216,37.84,23.607,49.593C38.904,337.296,8,373.08,8,416v88h184V401.368c0-3.903,1.52-7.584,4.279-10.344L319.031,268.28
	C324.816,262.496,328,254.808,328,246.632L328,246.632z M128,344l7.191-1c-2.056,9.696-8.144,17-15.191,17
	c-6.809,0-12.721-6.8-14.984-16H128z M72,280c0-26.472,21.527-48,48-48c26.472,0,48,21.528,48,48c0,26.473-21.528,48-48,48
	C93.528,328,72,306.472,72,280z M307.72,256.976L184.968,379.72c-5.784,5.783-8.968,13.472-8.968,21.647v86.633H64V392H48v96.001H24
	v-72c0-37.249,28.432-67.977,64.728-71.633C91.816,362.416,104.648,376,120,376c16.399,0,29.792-15.552,31.632-35.439
	c24.248-4.208,47.016-15.896,64.424-33.305l70.976-70.976c2.729-2.72,6.488-4.28,10.345-4.28c8.063,0,14.623,6.561,14.623,14.633
	C311.999,250.536,310.48,254.208,307.72,256.976L307.72,256.976z"/>
<path fill="#FFFFFF" d="M456.128,329.784C470.663,318.04,480,300.096,480,280c0-35.288-28.713-64-64-64c-35.288,0-64,28.712-64,64
	c0,30.464,21.416,55.984,49.968,62.4c-9.721,8.008-17.145,18.84-20.624,31.6l-11.456,42H292c-15.44,0-28,12.561-28,28
	c0,15.44,12.56,28,28,28h76v32h136V390.432C504,361.024,483.544,336.368,456.128,329.784z M368,280c0-26.472,21.527-48,48-48
	c26.472,0,48,21.528,48,48c0,26.473-21.528,48-48,48C389.528,328,368,306.472,368,280z M488,488H384v-16h6.703
	c13.801,0,25.992-8.791,30.353-21.88l26.528-79.592l-15.168-5.064l-26.528,79.593C403.696,451.608,397.6,456,390.703,456H292
	c-6.616,0-12-5.384-12-12c0-6.615,5.384-12,12-12h90.111l14.672-53.792C402.272,358.064,420.696,344,441.568,344
	C467.168,344,488,364.832,488,390.432V488z"/>
<path fill="#FFFFFF" d="M104,88h16v16h-16V88z"/>
<path fill="#FFFFFF" d="M136,88h96v16h-96V88z"/>
<path fill="#FFFFFF" d="M104,120h128v16H104V120z"/>
<path fill="#FFFFFF" d="M104,152h128v16H104V152z"/>
<path fill="#FFFFFF" d="M456,72h16v16h-16V72z"/>
<path fill="#FFFFFF" d="M280,72h160v16H280V72z"/>
<path fill="#FFFFFF" d="M280,104h192v16H280V104z"/>
<path fill="#FFFFFF" d="M280,136h192v16H280V136z"/>
<path fill="#FFFFFF" d="M464,8H288c-22.057,0-40,17.944-40,40v8H104c-17.648,0-32,14.353-32,32v80c0,17.648,14.352,32,32,32h72
	v38.952L234.424,200H248c12.336,0,23.279-7.256,28.576-17.863C280.224,183.232,284.008,184,288,184h21.575L368,222.952V184h96
	c22.056,0,40-17.943,40-40V48C504,25.944,486.056,8,464,8z M248,184h-18.424L192,209.048V184h-88c-8.824,0-16-7.176-16-16V88
	c0-8.823,7.176-16,16-16h144v72c0,12.328,5.72,23.225,14.512,30.568C259.968,180.144,254.36,184,248,184z M488,144
	c0,13.232-10.769,24-24,24H352v25.048L314.424,168H288c-13.232,0-24-10.768-24-24V48c0-13.231,10.768-24,24-24h176
	c13.231,0,24,10.769,24,24V144z"/>
<path fill="#FFFFFF" d="M280,40h16v16h-16V40z"/>
<path fill="#FFFFFF" d="M312,40h16v16h-16V40z"/>
<path fill="#FFFFFF" d="M344,40h128v16H344V40z"/>
</svg>
