<?xml version="1.0" encoding="utf-8"?>
<!-- Generator: Adobe Illustrator 16.0.4, SVG Export Plug-In . SVG Version: 6.00 Build 0)  -->
<!DOCTYPE svg PUBLIC "-//W3C//DTD SVG 1.1//EN" "http://www.w3.org/Graphics/SVG/1.1/DTD/svg11.dtd">
<svg version="1.1" id="Layer_5" xmlns="http://www.w3.org/2000/svg" xmlns:xlink="http://www.w3.org/1999/xlink" x="0px" y="0px"
	 width="512px" height="512px" viewBox="0 0 512 512" enable-background="new 0 0 512 512" xml:space="preserve">
<g>
	<path fill="#FFFFFF" d="M456,276.24V119.36c27.096-3.904,48-27.208,48-55.36c0-30.872-25.12-56-56-56c-30.881,0-56,25.128-56,56H8
		v320h240.408c4.159,66.849,59.72,120,127.592,120c70.575,0,128-57.424,128-128C504,335.688,485.224,299.72,456,276.24z M448,24
		c22.056,0,40,17.944,40,40c0,22.057-17.944,40-40,40c-22.057,0-40-17.943-40-40C408,41.944,425.944,24,448,24z M24,80H394.36
		c1.912,6.384,4.952,12.265,8.856,17.48l-48.929,48.928c-3.136-1.504-6.592-2.408-10.288-2.408c-3.695,0-7.151,0.904-10.279,2.408
		l-16.12-16.12c1.496-3.136,2.399-6.592,2.399-10.288c0-13.231-10.768-24-23.999-24c-13.232,0-24,10.769-24,24
		c0,3.696,0.903,7.152,2.407,10.28l-40.119,40.12c-3.137-1.496-6.593-2.4-10.288-2.4c-13.232,0-24,10.769-24,24
		c0,13.232,10.768,24,24,24c13.231,0,24-10.768,24-24c0-3.695-0.904-7.151-2.408-10.279l40.12-40.12
		C288.848,143.096,292.304,144,296,144c3.695,0,7.151-0.903,10.279-2.408l16.12,16.12c-1.496,3.137-2.4,6.593-2.4,10.288
		c0,13.232,10.769,24,24,24c13.232,0,24-10.768,24-24c0-3.695-0.903-7.151-2.407-10.279l48.936-48.929
		c7.32,5.488,16.008,9.208,25.473,10.576v145.96C421.144,254.376,399.327,248,376,248c-38.24,0-72.528,16.944-96,43.624V256h-48v96
		h18.336c-0.992,5.225-1.592,10.576-1.928,16H24V80z M344,160c4.407,0,8,3.584,8,8s-3.593,8-8,8c-4.408,0-8-3.584-8-8
		S339.592,160,344,160z M288,120c0-4.416,3.592-8,8-8s8,3.584,8,8s-3.592,8-8,8S288,124.416,288,120z M232,192c0,4.416-3.592,8-8,8
		s-8-3.584-8-8s3.592-8,8-8S232,187.584,232,192z M376,440c-35.288,0-64-28.712-64-64s28.712-64,64-64c35.287,0,64,28.712,64,64
		S411.287,440,376,440z M264,314.168c-3.832,6.912-7,14.217-9.513,21.832H248v-64h16V314.168z M368,264.408v32
		c-40.368,4.032-72,38.184-72,79.592c0,11.704,2.592,22.801,7.128,32.832l-27.752,16.024C268.16,410.072,264,393.528,264,376
		C264,316.944,309.976,268.536,368,264.408L368,264.408z M376,488c-38.513,0-72.544-19.544-92.704-49.239l27.863-16.088
		C325.703,442.816,349.312,456,376,456c26.688,0,50.296-13.184,64.84-33.327l27.863,16.088C448.544,468.456,414.512,488,376,488z
		 M476.623,424.856l-27.752-16.024C453.407,398.801,456,387.704,456,376c0-41.407-31.633-75.567-72.001-79.592v-32
		C442.024,268.536,488,316.944,488,376C488,393.528,483.84,410.072,476.623,424.856L476.623,424.856z"/>
	<path fill="#FFFFFF" d="M376,328c-26.473,0-48,21.528-48,48c0,26.473,21.527,48,48,48c26.472,0,48-21.527,48-48
		C424,349.528,402.472,328,376,328z M376,408c-17.648,0-32-14.352-32-32c0-17.647,14.352-32,32-32c17.647,0,32,14.353,32,32
		C408,393.648,393.648,408,376,408z"/>
	<path fill="#FFFFFF" d="M40,96h16v16H40V96z"/>
	<path fill="#FFFFFF" d="M72,96h112v16H72V96z"/>
	<path fill="#FFFFFF" d="M40,128h16v16H40V128z"/>
	<path fill="#FFFFFF" d="M72,128h112v16H72V128z"/>
	<path fill="#FFFFFF" d="M40,160h16v16H40V160z"/>
	<path fill="#FFFFFF" d="M72,160h112v16H72V160z"/>
	<path fill="#FFFFFF" d="M40,192h16v16H40V192z"/>
	<path fill="#FFFFFF" d="M72,192h112v16H72V192z"/>
	<path fill="#FFFFFF" d="M40,352h48v-80H40V352z M56,288h16v48H56V288z"/>
	<path fill="#FFFFFF" d="M104,352h48v-64h-48V352z M120,304h16v32h-16V304z"/>
	<path fill="#FFFFFF" d="M168,352h48V224h-48V352z M184,240h16v96h-16V240z"/>
</g>
</svg>
