<?xml version="1.0" encoding="utf-8"?>
<!-- Generator: Adobe Illustrator 16.0.4, SVG Export Plug-In . SVG Version: 6.00 Build 0)  -->
<!DOCTYPE svg PUBLIC "-//W3C//DTD SVG 1.1//EN" "http://www.w3.org/Graphics/SVG/1.1/DTD/svg11.dtd">
<svg version="1.1" id="Capa_1" xmlns="http://www.w3.org/2000/svg" xmlns:xlink="http://www.w3.org/1999/xlink" x="0px" y="0px"
	 width="47px" height="47px" viewBox="0 0 47 47" enable-background="new 0 0 47 47" xml:space="preserve">
<g>
	<g id="Layer_1_6_">
		<g>
			<path fill="#FFFFFF" d="M44.863,0.001H2.137C0.955,0.001,0,0.958,0,2.137V28.29c0.597-0.318,1.269-0.516,1.992-0.516h2.28v-1.068
				h6.409c0.591,0,1.068-0.479,1.068-1.067s-0.478-1.068-1.068-1.068H4.272V12.82h7.478v6.409c0,0.59,0.478,1.068,1.068,1.068h5.341
				c0.591,0,1.068-0.478,1.068-1.068s-0.478-1.068-1.068-1.068h-4.272v-6.41c0-0.59-0.479-1.068-1.068-1.068H4.272V4.274h13.887
				v9.613c0,0.59,0.478,1.068,1.068,1.068s1.068-0.479,1.068-1.068V4.274h10.146v6.409h-3.737c-0.591,0-1.066,0.479-1.066,1.068
				s0.477,1.068,1.066,1.068h9.612c0.591,0,1.067-0.479,1.067-1.068s-0.479-1.068-1.067-1.068h-3.737V4.274h10.147v7.738
				c0.11,0.059,0.226,0.118,0.33,0.189L47,14.831V2.137C47,0.958,46.042,0.001,44.863,0.001z"/>
			<path fill="#FFFFFF" d="M42.729,24.308v4.534H35.25V24.57c0-0.59-0.479-1.067-1.068-1.067c-0.59,0-1.068,0.479-1.068,1.067
				v12.818c0,0.59,0.479,1.067,1.068,1.067c0.592,0,1.068-0.479,1.068-1.067V30.98h7.479v11.75H25.637v-8.545h3.203
				c0.592,0,1.068-0.479,1.068-1.067c0-0.59-0.478-1.068-1.068-1.068h-4.271c-0.591,0-1.068,0.479-1.068,1.068v4.271h-9.613
				c-0.591,0-1.068,0.479-1.068,1.067c0,0.59,0.478,1.068,1.068,1.068H23.5v3.203H4.272v-6.408h-2.28
				c-0.724,0-1.396-0.197-1.992-0.518v9.062C0,46.043,0.955,47,2.137,47h42.726C46.043,47,47,46.043,47,44.864V21.49l-3.943,2.632
				C42.95,24.19,42.838,24.249,42.729,24.308z"/>
			<path fill="#FFFFFF" d="M46.286,16.827l-4.271-2.85c-0.492-0.329-1.123-0.36-1.646-0.08c-0.519,0.279-0.845,0.822-0.845,1.413
				v0.714H26.848c-1.18,0-2.139,0.957-2.139,2.136v6.409h-6.409c-1.179,0-2.136,0.957-2.136,2.137v3.205H2.137
				C0.955,29.911,0,30.868,0,32.045c0,1.181,0.955,2.138,2.137,2.138h16.164c1.181,0,2.137-0.957,2.137-2.138V28.84h6.41
				c1.18,0,2.135-0.957,2.135-2.135v-6.41h10.541v0.713c0,0.591,0.326,1.134,0.846,1.413c0.236,0.127,0.496,0.189,0.758,0.189
				c0.312,0,0.619-0.09,0.89-0.269l4.271-2.85c0.443-0.297,0.715-0.797,0.715-1.333C47,17.623,46.73,17.124,46.286,16.827z"/>
		</g>
	</g>
</g>
</svg>
