<?xml version="1.0" encoding="utf-8"?>
<!-- Generator: Adobe Illustrator 16.0.4, SVG Export Plug-In . SVG Version: 6.00 Build 0)  -->
<!DOCTYPE svg PUBLIC "-//W3C//DTD SVG 1.1//EN" "http://www.w3.org/Graphics/SVG/1.1/DTD/svg11.dtd">
<svg version="1.1" id="Layer_3" xmlns="http://www.w3.org/2000/svg" xmlns:xlink="http://www.w3.org/1999/xlink" x="0px" y="0px"
	 width="512px" height="512px" viewBox="0 0 512 512" enable-background="new 0 0 512 512" xml:space="preserve">
<path fill="#FFFFFF" d="M440,216c4.416,0,8-3.584,8-8v-48c0-4.416-3.584-8-8-8h-48c-4.112,0-7.377,3.145-7.824,7.145L288,111.056V88
	c0-4.416-3.584-8-8-8h-16V35.312l26.344,26.344l11.312-11.312l-40-40c-3.128-3.129-8.184-3.129-11.312,0l-40,40l11.312,11.312
	L248,35.312V80h-16c-4.416,0-8,3.584-8,8v23.057l-96.176,48.088c-0.448-4-3.713-7.145-7.824-7.145H72c-4.416,0-8,3.584-8,8v48
	c0,4.416,3.584,8,8,8h16v80H72c-4.416,0-8,3.584-8,8v48c0,4.416,3.584,8,8,8h48c4.111,0,7.376-3.144,7.824-7.144L224,400.944V424
	c0,4.416,3.584,8,8,8h16v44.688l-26.345-26.344l-11.312,11.312l40,40c1.56,1.561,3.608,2.344,5.656,2.344s4.096-0.783,5.655-2.344
	l40-40l-11.312-11.312L264,476.688V432h16c4.416,0,8-3.584,8-8v-23.056l96.176-48.088c0.447,4,3.712,7.144,7.824,7.144h48
	c4.416,0,8-3.584,8-8v-48c0-4.416-3.584-8-8-8h-16v-80H440z M400,168h32v32h-32V168z M240,96h32v32h-32V96z M232,144h48
	c4.416,0,8-3.584,8-8v-7.056l96,48v14.112l-96.176,48.088c-0.448-4-3.713-7.145-7.824-7.145h-48c-4.112,0-7.376,3.145-7.824,7.145
	L128,191.056v-14.112l96-48V136C224,140.416,227.584,144,232,144z M240,280v-32h32v32H240z M80,168h32v32H80V168z M112,344H80v-32
	h32V344z M128,335.056V304c0-4.416-3.584-8-8-8h-16v-80h16c4.111,0,7.376-3.144,7.824-7.144L224,256.944V288c0,4.416,3.584,8,8,8h16
	v72h-16c-4.416,0-8,3.584-8,8v7.057L128,335.056z M272,416h-32v-32h32V416z M432,344h-32v-32h32V344z M408,296h-16
	c-4.416,0-8,3.584-8,8v31.057l-96,48V376c0-4.416-3.584-8-8-8h-16v-72h16c4.416,0,8-3.584,8-8v-31.056l96.176-48.088
	c0.447,4,3.712,7.144,7.824,7.144h16V296z"/>
</svg>
