<?xml version="1.0" encoding="utf-8"?>
<!-- Generator: Adobe Illustrator 16.0.4, SVG Export Plug-In . SVG Version: 6.00 Build 0)  -->
<!DOCTYPE svg PUBLIC "-//W3C//DTD SVG 1.1//EN" "http://www.w3.org/Graphics/SVG/1.1/DTD/svg11.dtd">
<svg version="1.1" id="Capa_1" xmlns="http://www.w3.org/2000/svg" xmlns:xlink="http://www.w3.org/1999/xlink" x="0px" y="0px"
	 width="841.889px" height="1190.551px" viewBox="0 0 841.889 1190.551" enable-background="new 0 0 841.889 1190.551"
	 xml:space="preserve">
<g>
	<g>
		<path fill="#FFFFFF" d="M829.532,292.953H582.024L433.3,218.592v-31.904c0.002-6.825-5.531-12.357-12.355-12.357
			s-12.357,5.532-12.357,12.357v31.904l-148.723,74.361H12.357C5.533,292.953,0,298.482,0,305.309v52.722
			c0,6.826,5.533,12.357,12.356,12.357h27.185v435.771c0,6.825,5.532,12.356,12.356,12.356h356.691V931.17l-98.062,62.262
			c-5.685,3.609-7.418,11.372-3.809,17.057s11.369,7.412,17.055,3.81l84.815-53.853v43.42c0,6.825,5.533,12.356,12.357,12.356
			c6.823,0,12.356-5.531,12.356-12.356v-43.607l86.537,54.085c6.173,3.857,14.546,1.405,17.693-5.138
			c2.691-5.599,0.669-12.531-4.595-15.819l-99.634-62.272V818.515h191.389c6.823,0,12.356-5.531,12.356-12.356
			c0-6.826-5.532-12.357-12.356-12.357H64.253V370.386h713.381v423.417h-92.537c-6.823,0-12.356,5.531-12.356,12.356
			c0,6.826,5.533,12.357,12.356,12.357h104.895c6.824,0,12.357-5.531,12.357-12.357V370.386h27.184
			c6.824,0,12.356-5.531,12.356-12.356v-52.721C841.889,298.482,836.357,292.953,829.532,292.953z M433.302,292.129v-45.909
			l93.464,46.731H433.26C433.279,292.679,433.302,292.407,433.302,292.129z M408.587,246.219v45.909
			c0,0.278,0.023,0.551,0.042,0.824h-93.506L408.587,246.219z M817.177,345.673H24.712v-28.008h792.463v28.008H817.177z"/>
	</g>
</g>
<g>
	<g>
		<path fill="#FFFFFF" d="M631.828,701.541h-66.725V463.471c0-6.825-5.533-12.356-12.357-12.356h-52.722
			c-6.824,0-12.357,5.531-12.357,12.356v238.069H459.66V516.193c0-6.825-5.533-12.356-12.357-12.356h-52.722
			c-6.824,0-12.357,5.531-12.357,12.356v185.348h-28.007V555.734c0-6.825-5.533-12.356-12.357-12.356h-52.722
			c-6.824,0-12.357,5.531-12.357,12.356v145.807h-54.369V437.112c0-6.826-5.533-12.357-12.356-12.357
			c-6.824,0-12.357,5.531-12.357,12.357v276.786c0,6.825,5.533,12.356,12.357,12.356h421.773c6.823,0,12.356-5.531,12.356-12.356
			C644.185,707.072,638.654,701.541,631.828,701.541z M329.506,701.541h-28.008V568.09h28.008V701.541z M434.949,701.541h-28.008
			v-172.99h28.008V701.541z M540.391,701.541h-28.008V475.829h28.008V701.541z"/>
	</g>
</g>
</svg>
