<?xml version="1.0" encoding="utf-8"?>
<!-- Generator: Adobe Illustrator 16.0.4, SVG Export Plug-In . SVG Version: 6.00 Build 0)  -->
<!DOCTYPE svg PUBLIC "-//W3C//DTD SVG 1.1//EN" "http://www.w3.org/Graphics/SVG/1.1/DTD/svg11.dtd">
<svg version="1.1" id="Layer_1" xmlns="http://www.w3.org/2000/svg" xmlns:xlink="http://www.w3.org/1999/xlink" x="0px" y="0px"
	 width="496px" height="496px" viewBox="0 0 496 496" enable-background="new 0 0 496 496" xml:space="preserve">
<path d="M216,120c-52.938,0-96,43.062-96,96s43.062,96,96,96s96-43.062,96-96S268.938,120,216,120z M216,136
	c43.465,0,78.863,34.855,79.902,78.07l-50.094,22.547C241.199,224.594,229.625,216,216,216c-13.559,0-25.105,8.512-29.762,20.449
	l-50.078-23.57C137.817,170.222,172.946,136,216,136z M232,248c0,8.824-7.176,16-16,16s-16-7.176-16-16s7.176-16,16-16
	S232,239.176,232,248z M216,296c-38.91,0-71.391-27.945-78.512-64.809l47.047,22.145C187.098,268.441,200.184,280,216,280
	c15.793,0,28.855-11.52,31.457-26.586l46.863-21.086C286.754,268.633,254.512,296,216,296z"/>
<path d="M357.656,290.344c-3.129-3.129-8.184-3.129-11.312,0L336,300.687l-13.617-13.617C336.016,266.719,344,242.281,344,216
	c0-1.992-0.207-3.93-0.297-5.895l53.703-24.168C402.664,189.719,409.047,192,416,192c17.648,0,32-14.352,32-32
	c0-11.113-5.703-20.902-14.328-26.641l27.848-69.605C462.352,63.816,463.153,64,464,64c17.648,0,32-14.352,32-32S481.649,0,464,0
	s-32,14.352-32,32c0,11.113,5.703,20.902,14.328,26.641l-27.848,69.605c-0.832-0.062-1.633-0.246-2.48-0.246
	c-5.711,0-11,1.625-15.648,4.258l-45.152-51.609C358.184,75.785,360,70.121,360,64c0-17.648-14.352-32-32-32
	c-11.609,0-21.695,6.281-27.312,15.551L175.91,32.871C175.922,32.574,176,32.297,176,32c0-17.648-14.352-32-32-32s-32,14.352-32,32
	c0,8.121,3.137,15.457,8.137,21.105l-72.984,94.879c-2.25-1.215-4.625-2.191-7.152-2.848V62.863C53.762,59.289,64,46.871,64,32
	C64,14.351,49.649,0,32,0S0,14.351,0,32c0,14.871,10.238,27.289,24,30.863v82.273C10.239,148.711,0,161.129,0,176
	c0,17.648,14.352,32,32,32c10.977,0,20.672-5.559,26.441-14.008l29.965,14.098C88.239,210.719,88,213.328,88,216
	c0,70.574,57.426,128,128,128c26.281,0,50.719-7.984,71.07-21.617L300.688,336l-10.344,10.344C288.84,347.84,288,349.871,288,352
	s0.84,4.16,2.344,5.656l124.398,124.398c8.992,8.992,20.945,13.945,33.656,13.945c26.25,0,47.602-21.352,47.602-47.602
	c0-12.711-4.953-24.664-13.945-33.656L357.656,290.344z M464,16c8.824,0,16,7.176,16,16s-7.176,16-16,16s-16-7.176-16-16
	S455.176,16,464,16z M444.688,400L400,444.687L331.313,376L376,331.312L444.688,400z M432,160c0,8.824-7.176,16-16,16
	s-16-7.176-16-16s7.176-16,16-16S432,151.176,432,160z M328,48c8.824,0,16,7.176,16,16s-7.176,16-16,16s-16-7.176-16-16
	S319.176,48,328,48z M144,16c8.824,0,16,7.176,16,16s-7.176,16-16,16s-16-7.176-16-16S135.176,16,144,16z M16,32
	c0-8.824,7.176-16,16-16s16,7.176,16,16s-7.176,16-16,16S16,40.824,16,32z M32,192c-8.824,0-16-7.176-16-16s7.176-16,16-16
	s16,7.176,16,16S40.824,192,32,192z M63.719,178.785C63.801,177.855,64,176.953,64,176c0-6.305-1.895-12.152-5.055-17.113
	l74.48-96.824C136.754,63.238,140.274,64,144,64c11.609,0,21.695-6.281,27.312-15.551l124.785,14.68
	C296.078,63.426,296,63.703,296,64c0,17.648,14.352,32,32,32c5.711,0,11-1.625,15.648-4.258l45.16,51.609
	C385.817,148.215,384,153.879,384,160c0,4.688,1.07,9.113,2.887,13.129l-45.016,20.254C331.153,133.566,278.848,88,216,88
	c-62.145,0-114.039,44.535-125.566,103.359L63.719,178.785z M104,216c0-61.762,50.238-112,112-112s112,50.238,112,112
	s-50.238,112-112,112S104,277.761,104,216z M299.824,312.511c4.52-3.926,8.762-8.168,12.688-12.688L324.688,312L312,324.687
	L299.824,312.511z M317.656,341.656L352,307.312L364.688,320L320,364.687L307.313,352L317.656,341.656z M448.399,480
	c-8.438,0-16.375-3.289-22.336-9.258L411.313,456L456,411.312l14.742,14.742c5.969,5.969,9.258,13.906,9.258,22.344
	C480,465.824,465.824,480,448.399,480z"/>
<path d="M440,440h16v16h-16V440z"/>
</svg>
